 <svg  version="1.0" xmlns="http://www.w3.org/2000/svg"  width="68.000000pt" height="46.000000pt" viewBox="0 0 68.000000 46.000000"  preserveAspectRatio="xMidYMid meet">  <g transform="translate(0.000000,46.000000) scale(0.100000,-0.100000)" fill="#ffffff" stroke="none"> <path d="M220 457 c0 -2 47 -50 105 -108 58 -58 105 -110 105 -116 0 -6 -12 -26 -27 -43 l-26 -32 67 -66 67 -66 80 80 c74 77 79 84 79 125 0 42 -4 47 -89 131 -83 82 -92 88 -130 88 -23 0 -50 -5 -61 -12 -18 -11 -18 -14 -3 -30 15 -17 18 -17 34 -2 10 9 26 13 37 10 25 -8 182 -170 182 -188 0 -7 -29 -43 -65 -78 l-65 -65 -36 36 -36 36 17 33 c29 56 9 90 -113 198 -37 32 -79 62 -94 66 -16 3 -28 5 -28 3z"/> <path d="M88 347 c-71 -72 -78 -83 -78 -119 0 -38 6 -46 93 -129 85 -82 95 -88 133 -89 45 0 76 22 57 41 -8 8 -17 7 -32 -1 -12 -6 -30 -9 -40 -5 -23 7 -181 169 -181 185 0 12 118 140 129 140 3 0 23 -17 44 -36 36 -33 37 -37 23 -53 -21 -23 -24 -64 -6 -93 7 -13 50 -57 94 -99 56 -53 92 -79 116 -84 33 -7 27 0 -78 101 -62 60 -112 115 -112 122 0 8 13 26 28 42 l29 29 -66 65 c-37 36 -69 65 -71 64 -3 0 -40 -37 -82 -81z"/> </g> </svg> 